<?xml version="1.0" encoding="UTF-8" standalone="no"?>
<svg
   id="svg"
   version="1.1"
   width="400"
   height="396.1352657004831"
   viewBox="0, 0, 400,396.1352657004831"
   sodipodi:docname="esp32.svg"
   inkscape:version="1.4 (86a8ad7, 2024-10-11)"
   xmlns:inkscape="http://www.inkscape.org/namespaces/inkscape"
   xmlns:sodipodi="http://sodipodi.sourceforge.net/DTD/sodipodi-0.dtd"
   xmlns="http://www.w3.org/2000/svg"
   xmlns:svg="http://www.w3.org/2000/svg">
  <defs
     id="defs1" />
  <sodipodi:namedview
     id="namedview1"
     pagecolor="#ffffff"
     bordercolor="#000000"
     borderopacity="0.25"
     inkscape:showpageshadow="2"
     inkscape:pageopacity="0.0"
     inkscape:pagecheckerboard="0"
     inkscape:deskcolor="#d1d1d1"
     inkscape:zoom="4.488366"
     inkscape:cx="200.07281"
     inkscape:cy="198.06763"
     inkscape:window-width="3840"
     inkscape:window-height="2036"
     inkscape:window-x="-12"
     inkscape:window-y="-12"
     inkscape:window-maximized="1"
     inkscape:current-layer="svg" />
  <path
     id="path1"
     d="m 87.017,31.973 c -1.201,0.454 -2.44,0.539 -5.103,0.351 -4.848,-0.343 -5.004,-0.184 -5.012,5.101 -0.007,4.341 -0.285,5.272 -1.441,4.825 -0.403,-0.157 -2.091,-0.277 -3.749,-0.267 L 68.696,42 68.471,39.03 c -0.124,-1.634 -0.073,-3.5 0.112,-4.146 0.522,-1.818 -1.088,-2.937 -3.766,-2.619 -1.091,0.13 -6.872,0.237 -12.848,0.239 l -10.865,0.003 -4.1,4.106 -4.1,4.105 0.006,13.04 c 0.003,7.173 0.163,13.288 0.354,13.59 0.46,0.726 3.69,1.008 6.225,0.544 3.12,-0.57 3.305,-0.292 3.037,4.576 l -0.223,4.043 h -1.599 c -0.88,0 -2.199,-0.216 -2.932,-0.481 -1.045,-0.379 -1.498,-0.379 -2.104,0 -0.424,0.265 -1.019,0.481 -1.323,0.481 -1.138,0 -1.395,1.141 -1.565,6.949 -0.227,7.748 -0.485,7.372 4.883,7.129 5.039,-0.228 5.411,-0.002 4.656,2.827 -0.379,1.422 -0.326,1.786 0.447,3.036 1.184,1.917 0.653,2.173 -4.88,2.359 -5.173,0.173 -4.833,-0.278 -5.155,6.838 -0.354,7.827 0.335,9.266 3.656,7.631 0.671,-0.33 1.236,-0.33 2.18,0.001 0.701,0.246 1.731,0.355 2.29,0.241 1.548,-0.315 1.858,0.462 2.022,5.076 l 0.151,4.227 -2.053,0.257 c -1.129,0.141 -3.095,0.142 -4.369,0.003 -3.575,-0.39 -3.641,-0.279 -3.77,6.441 -0.134,6.947 -0.408,6.603 5.276,6.629 l 4.418,0.019 0.084,4.45 c 0.11,5.781 0.125,5.766 -5.063,5.348 -4.799,-0.386 -4.699,-0.527 -4.753,6.709 -0.05,6.743 -0.379,6.329 4.993,6.27 4.906,-0.055 6.008,0.174 5.584,1.16 -0.612,1.425 -0.987,5.596 -0.573,6.37 0.537,1.004 -0.251,1.458 -3.191,1.839 -1.183,0.153 -2.507,0.409 -2.943,0.57 -0.459,0.168 -1.235,0.065 -1.843,-0.245 -1.747,-0.892 -1.969,-0.156 -2.05,6.778 -0.08,6.842 0.086,7.361 2.351,7.35 4.785,-0.024 5.799,0.062 7.095,0.604 1.26,0.526 1.421,0.734 1.148,1.482 -0.174,0.478 -0.318,1.984 -0.319,3.346 -0.003,2.991 0.077,2.948 -5.648,3.021 -5.025,0.064 -4.851,-0.223 -4.59,7.585 0.242,7.211 0.081,6.955 4.199,6.665 5.082,-0.359 6.177,-0.044 6.179,1.775 0.002,0.809 0.113,2.519 0.249,3.801 0.314,2.977 0.261,3.008 -5.27,3.015 -3.83,0.005 -4.496,0.103 -4.806,0.7 -0.577,1.114 -0.823,11.293 -0.303,12.565 l 0.449,1.098 4.632,0.057 c 5.144,0.062 5.959,0.373 5.116,1.949 -0.27,0.505 -0.526,2.216 -0.57,3.803 -0.096,3.546 -0.148,3.583 -5.176,3.671 -4.876,0.085 -4.69,-0.189 -4.691,6.921 0,6.48 0.26,7.268 2.16,6.546 0.681,-0.259 1.524,-0.253 2.509,0.019 0.816,0.226 2.036,0.329 2.71,0.23 1.941,-0.285 3.035,0.388 2.579,1.588 -0.205,0.54 -0.258,2.363 -0.117,4.052 l 0.256,3.07 -1.291,0.258 c -0.71,0.142 -2.763,0.258 -4.563,0.258 -4.331,0 -4.281,-0.076 -4.261,6.454 0.022,6.98 0.759,8.608 3.096,6.839 1.228,-0.928 5.987,-0.107 7.365,1.271 0.387,0.387 -0.868,7.742 -1.38,8.093 -0.208,0.142 -2.035,0.245 -4.06,0.228 -5.118,-0.041 -4.921,-0.33 -4.921,7.213 0,7.526 -0.249,7.165 4.935,7.173 4.939,0.008 4.801,-0.096 5.124,3.867 0.414,5.071 -0.243,5.51 -6.681,4.456 -3.322,-0.544 -3.311,-0.566 -3.414,6.735 -0.102,7.332 0.245,8.648 2.038,7.721 0.952,-0.493 1.348,-0.493 2.975,-0.003 1.033,0.31 2.342,0.474 2.91,0.363 1.962,-0.382 2.351,0.43 2.07,4.324 -0.274,3.809 -0.746,4.585 -2.207,3.627 -0.57,-0.373 -1.214,-0.448 -2.014,-0.233 -0.648,0.173 -1.97,0.167 -2.939,-0.014 -2.945,-0.549 -3.059,0.119 -2.873,16.836 l 0.123,11.015 3.424,3.386 c 5.046,4.989 3.81,4.666 18.125,4.748 6.754,0.039 12.625,-0.056 13.046,-0.212 1.218,-0.451 2.419,-5.953 1.433,-6.563 -1.765,-1.091 1.107,-3.606 3.388,-2.968 0.927,0.26 2.223,0.354 2.881,0.21 1.556,-0.342 1.826,0.435 1.72,4.949 -0.112,4.746 -0.301,4.612 6.88,4.866 7.861,0.278 7.517,0.513 7.576,-5.187 0.052,-5.003 0.009,-4.872 1.584,-4.85 1.905,0.027 3.857,0.009 5.052,-0.048 1.568,-0.075 1.827,0.547 1.84,4.416 0.016,4.563 0.16,4.957 2.024,5.515 0.858,0.258 1.74,0.358 1.959,0.222 0.218,-0.135 2.4,-0.235 4.848,-0.223 5.805,0.029 5.664,0.144 5.533,-4.522 -0.121,-4.259 0.282,-5.605 1.485,-4.961 1.134,0.607 3.804,0.489 4.37,-0.194 2.09,-2.517 3.757,0.052 3.465,5.342 -0.24,4.366 0.227,5.365 2.052,4.389 0.51,-0.273 1.433,-0.279 2.816,-0.016 1.132,0.214 2.262,0.257 2.511,0.095 0.25,-0.163 1.703,-0.295 3.229,-0.295 h 2.775 l 0.113,-3.965 c 0.062,-2.18 0.314,-4.42 0.559,-4.978 l 0.445,-1.014 2.019,0.663 c 1.723,0.566 2.132,0.584 2.8,0.122 2.661,-1.841 3.848,-0.29 3.693,4.826 -0.126,4.165 0.065,4.545 2.264,4.496 0.654,-0.014 3.063,0.053 5.352,0.15 5.674,0.24 5.474,0.415 5.275,-4.646 -0.19,-4.841 0.885,-6.868 2.937,-5.539 0.565,0.366 1.943,0.569 3.865,0.569 h 2.988 l 0.085,3.072 c 0.047,1.69 0.091,3.749 0.099,4.577 0.016,1.766 0.727,2.101 3.714,1.751 1.017,-0.119 2.653,-0.065 3.634,0.121 5.789,1.097 7.548,-0.212 7.236,-5.383 -0.252,-4.166 0.751,-5.308 3.666,-4.169 0.447,0.174 1.086,0.126 1.467,-0.112 2.161,-1.348 4.062,2.456 3.064,6.131 -0.792,2.916 0.624,4.21 3.948,3.606 1.3,-0.236 3.333,-0.241 5.414,-0.012 4.655,0.511 4.944,0.313 4.877,-3.35 -0.09,-4.97 0.718,-7.389 2.155,-6.454 0.701,0.456 1.266,0.487 2.805,0.156 2.733,-0.587 3.051,-0.153 3.277,4.474 0.243,4.98 0.068,4.852 6.999,5.135 8.147,0.334 8.894,-0.154 7.634,-4.992 -1.023,-3.927 0.356,-6.288 2.755,-4.717 0.75,0.492 1.393,0.587 2.49,0.37 3.948,-0.785 4.453,-0.239 4.453,4.813 0,4.529 -0.035,4.503 5.818,4.468 2.36,-0.014 4.592,0.091 4.96,0.233 1.593,0.615 1.942,-0.224 2.026,-4.872 0.1,-5.533 2.087,-6.82 7.81,-5.058 2.19,0.675 3.474,4.067 1.784,4.716 -0.835,0.32 -0.74,2.105 0.194,3.616 l 0.789,1.276 5.643,0.223 c 7.312,0.29 6.949,0.544 6.763,-4.74 -0.167,-4.762 -0.004,-5.267 1.691,-5.213 0.646,0.021 2.47,0.041 4.055,0.045 2.6,0.007 2.9,0.089 3.073,0.842 0.178,0.767 0.544,5.641 0.574,7.624 0.019,1.245 2.006,1.989 3.575,1.339 0.778,-0.322 1.831,-0.389 3.073,-0.194 5.714,0.898 8.65,0.429 8.002,-1.278 -0.209,-0.548 -0.36,-2.092 -0.337,-3.43 0.024,-1.339 -0.018,-2.766 -0.092,-3.171 -0.292,-1.599 1.741,-2.455 4.057,-1.707 1.124,0.363 2.457,0.66 2.963,0.66 1.173,0 1.435,0.811 1.731,5.352 l 0.232,3.568 4.757,0.019 c 2.617,0.011 5.471,0.153 6.343,0.315 1.088,0.203 1.801,0.135 2.271,-0.217 0.697,-0.522 0.729,-0.776 0.721,-5.66 -0.006,-3.516 0.171,-3.665 4.54,-3.834 l 3.568,-0.138 0.199,4.476 c 0.149,3.376 0.344,4.572 0.792,4.867 2.223,1.463 28.543,-0.082 28.543,-1.675 0,-0.162 1.317,-1.645 2.926,-3.297 3.6,-3.694 3.424,-2.824 3.387,-16.809 -0.032,-11.73 -0.364,-14.736 -1.586,-14.333 -3.941,1.297 -9.171,0.088 -8.14,-1.881 0.437,-0.833 0.434,-1.302 -0.014,-2.792 -0.885,-2.94 -0.217,-3.355 4.854,-3.015 3.771,0.253 4.069,0.218 4.461,-0.514 0.568,-1.062 0.51,-11.052 -0.074,-12.753 l -0.462,-1.344 -4.183,0.076 c -4.87,0.089 -6.008,-0.639 -4.528,-2.898 0.651,-0.994 0.651,-1.14 -0.009,-2.868 -0.908,-2.378 -0.677,-2.51 4.397,-2.518 5.545,-0.008 5.427,0.159 5.252,-7.451 -0.172,-7.491 -0.025,-7.281 -5.058,-7.22 -5.651,0.069 -5.165,0.223 -4.697,-1.49 0.505,-1.849 0.551,-3.447 0.15,-5.293 -0.55,-2.536 4.413,-4.089 7.606,-2.38 1.685,0.901 2.157,-0.758 2.001,-7.022 -0.174,-6.934 -0.158,-6.911 -4.305,-6.565 -4.929,0.411 -6.097,0.051 -5.7,-1.758 0.177,-0.804 0.328,-2.691 0.337,-4.193 0.017,-3.006 0.057,-3.057 2.852,-3.698 1.212,-0.278 1.894,-0.241 2.577,0.138 3.267,1.812 4.299,0.073 4.299,-7.242 0,-6.566 0.071,-6.481 -5.122,-6.195 -3.051,0.169 -3.954,0.097 -4.22,-0.334 -0.386,-0.625 -0.585,-8.665 -0.216,-8.704 0.133,-0.014 2.102,-0.099 4.376,-0.189 5.211,-0.206 4.959,0.135 5.111,-6.914 0.17,-7.885 0.412,-7.54 -5.271,-7.54 -5.085,0 -5.162,-0.043 -4.494,-2.54 0.352,-1.316 0.372,-2.341 0.075,-3.789 l -0.406,-1.986 1.356,-0.254 c 0.746,-0.14 2.845,-0.134 4.664,0.013 l 3.307,0.269 0.418,-1.506 c 0.23,-0.828 0.419,-3.93 0.42,-6.894 0.003,-6.338 -0.338,-7.061 -3.061,-6.502 -1.627,0.335 -4.349,0.334 -6.295,-0.002 l -1.232,-0.213 0.515,-1.677 c 0.283,-0.923 0.625,-2.692 0.761,-3.931 0.295,-2.692 0.716,-2.882 5.264,-2.378 3.896,0.432 3.824,0.56 3.979,-7.148 0.154,-7.659 0.181,-7.603 -3.471,-7.275 -6.198,0.556 -6.897,0.252 -5.96,-2.587 0.493,-1.495 0.468,-1.877 -0.263,-3.964 l -0.809,-2.309 1.026,-0.218 c 0.564,-0.12 2.72,-0.244 4.791,-0.276 4.952,-0.076 4.757,0.168 4.757,-5.944 0,-7.303 -0.613,-8.514 -3.806,-7.505 -4.021,1.271 -7.584,0.093 -6.228,-2.059 0.167,-0.266 0.397,-2.001 0.511,-3.854 l 0.207,-3.37 4.228,-0.112 4.227,-0.112 0.431,-1.235 c 0.532,-1.527 0.569,-9.423 0.05,-10.787 -0.376,-0.99 -0.41,-0.997 -3.984,-0.78 -1.983,0.12 -4.05,0.106 -4.593,-0.03 l -0.988,-0.248 0.191,-4.448 c 0.105,-2.446 0.202,-4.671 0.215,-4.943 0.039,-0.775 6.698,-0.679 7.568,0.109 0.601,0.543 0.725,0.537 1.221,-0.063 0.72,-0.871 0.794,-13.739 0.084,-14.45 -0.466,-0.465 -7.318,-0.621 -8.029,-0.181 -0.642,0.396 -1.007,-0.704 -1.046,-3.156 -0.021,-1.308 -0.178,-2.78 -0.349,-3.271 -0.489,-1.41 1.534,-2.05 5.813,-1.841 4.363,0.213 4.277,0.354 4.277,-7.075 0,-7.459 0.172,-7.229 -5.273,-7.103 -4.765,0.11 -4.914,0.001 -4.43,-3.231 0.175,-1.163 0.062,-2.188 -0.347,-3.168 -0.789,-1.888 -0.674,-1.94 4.651,-2.13 5.888,-0.21 5.396,1.13 5.29,-14.433 l -0.089,-12.991 -3.369,-3.498 c -4.576,-4.75 -3.426,-4.451 -17.172,-4.472 -7.67,-0.011 -12.101,-0.168 -12.62,-0.446 -1.639,-0.877 -2.279,0.438 -2.405,4.938 l -0.113,4.014 -2.378,0.306 c -1.309,0.168 -3.137,0.409 -4.064,0.535 -1.93,0.263 -1.787,0.692 -1.761,-5.278 0.018,-4.071 0.239,-3.924 -6.389,-4.242 -3.092,-0.149 -5.805,-0.47 -6.234,-0.738 -1.333,-0.832 -1.759,0.16 -1.882,4.381 -0.166,5.696 -0.083,5.525 -2.761,5.762 -1.255,0.111 -2.703,0.261 -3.22,0.333 -1.79,0.248 -2.615,-1.548 -2.526,-5.501 0.102,-4.515 0.124,-4.495 -4.706,-4.201 -2.667,0.163 -4.644,0.072 -6.11,-0.279 -3.263,-0.783 -3.755,-0.192 -3.762,4.523 -0.008,5.556 0.276,5.233 -4.578,5.21 l -4.136,-0.018 -0.2,-1.19 c -0.11,-0.654 -0.151,-2.492 -0.092,-4.084 0.154,-4.124 0.102,-4.156 -7.056,-4.274 -6.795,-0.112 -6.611,-0.241 -6.495,4.542 0.109,4.547 0.056,4.597 -4.926,4.667 -4.857,0.067 -4.608,0.329 -4.617,-4.866 -0.007,-4.089 -0.173,-4.242 -4.495,-4.147 -1.808,0.04 -4.169,-0.125 -5.246,-0.366 -2.048,-0.459 -4.048,0.727 -3.527,2.092 0.269,0.703 0.483,6.308 0.272,7.117 -0.203,0.778 -7.754,0.693 -9.242,-0.103 -0.839,-0.449 -1.13,-5.291 -0.4,-6.655 0.925,-1.729 -0.292,-2.142 -6.585,-2.235 -3.227,-0.048 -6.243,-0.218 -6.703,-0.379 -1.073,-0.374 -1.344,0.822 -1.344,5.917 0,3.915 -0.347,4.72 -1.784,4.141 -0.436,-0.176 -1.78,-0.332 -2.987,-0.348 -2.607,-0.033 -4.083,-1.532 -2.985,-3.033 0.472,-0.646 0.441,-0.889 -0.228,-1.83 -0.711,-0.998 -0.724,-1.16 -0.157,-2.025 1.273,-1.943 -0.099,-2.407 -7.224,-2.44 -7.099,-0.033 -8.509,0.442 -7.693,2.589 1.968,5.175 0.845,7.221 -3.762,6.856 -3.578,-0.284 -4.497,-1.035 -3.731,-3.05 0.21,-0.553 0.203,-1.154 -0.017,-1.488 -0.203,-0.309 -0.262,-1.39 -0.132,-2.402 0.319,-2.473 0.29,-2.483 -7.288,-2.517 -7.607,-0.033 -7.312,-0.218 -7.197,4.492 0.104,4.279 0.097,4.312 -0.962,4.577 -6.225,1.563 -9.041,0.099 -8.905,-4.628 0.122,-4.242 -0.548,-5.297 -2.931,-4.613 -1.717,0.492 -5.292,0.46 -7.183,-0.065 -2.341,-0.65 -2.68,-0.079 -2.866,4.83 -0.085,2.247 -0.333,4.263 -0.551,4.481 -0.987,0.988 -4.835,0.253 -5.459,-1.041 -0.411,-0.855 -0.435,-0.859 -0.461,-0.088 -0.03,0.924 -0.736,1.764 -1.483,1.764 -1.07,0 -1.618,-2.074 -1.419,-5.364 0.252,-4.176 0.246,-4.181 -5.714,-4.238 -3.172,-0.03 -5.059,-0.227 -5.827,-0.607 -1.641,-0.813 -1.89,-0.299 -1.896,3.913 -0.008,5.506 -0.535,6.867 -2.206,5.697 -0.541,-0.379 -0.945,-0.452 -1.102,-0.198 -0.136,0.22 -0.996,0.413 -1.909,0.428 -0.914,0.016 -2.019,0.172 -2.455,0.348 -1.48,0.596 -1.784,-0.205 -1.784,-4.709 0,-5.444 -0.132,-5.634 -3.567,-5.115 -2.48,0.374 -7.539,0.211 -8.831,-0.285 -1.489,-0.571 -2.291,1.187 -2.226,4.886 0.086,4.97 0.06,5.124 -0.898,5.375 -0.469,0.123 -1.717,0.024 -2.773,-0.22 -1.516,-0.35 -2.128,-0.332 -2.912,0.088 -1.449,0.776 -1.558,0.448 -1.678,-5.054 -0.132,-6.067 -0.449,-6.438 -4.27,-4.994 m 76.719,1.709 c -0.477,0.302 -0.404,0.439 0.396,0.742 0.629,0.237 1.159,0.228 1.473,-0.025 1.069,-0.861 -0.618,-1.508 -1.869,-0.717 m 91.79,-0.026 c -0.306,0.494 0.196,2.816 0.609,2.816 0.713,0 1.661,-2.458 1.088,-2.822 -0.697,-0.441 -1.422,-0.439 -1.697,0.006 m 46.555,2.221 c 0,0.327 0.179,0.595 0.397,0.595 0.218,0 0.396,-0.268 0.396,-0.595 0,-0.327 -0.178,-0.595 -0.396,-0.595 -0.218,0 -0.397,0.268 -0.397,0.595 M 157.074,81.545 c 0.621,0.562 0.718,1.16 0.622,3.821 -0.176,4.854 0.602,4.611 -14.842,4.645 -11.646,0.026 -12.801,0.089 -13.378,0.727 -0.656,0.724 -1.049,25.067 -0.431,26.677 0.484,1.261 3.279,1.6 12.714,1.539 5.944,-0.038 6.051,0.04 6.34,4.661 0.289,4.617 0.338,4.594 -10.033,4.759 -7.808,0.125 -8.074,0.156 -8.631,1.006 -0.752,1.147 -0.92,26.539 -0.182,27.428 0.369,0.445 2.877,0.539 13.573,0.509 l 13.121,-0.038 0.916,1.065 c 2.718,3.16 0.744,9.157 -2.81,8.534 -0.85,-0.149 -10.757,-0.264 -22.015,-0.256 -13.146,0.009 -20.727,-0.129 -21.188,-0.388 -0.896,-0.501 -1.138,-83.692 -0.247,-84.765 0.947,-1.141 45.205,-1.069 46.471,0.076 m 46.453,-0.037 c 2.334,0.566 5.866,2.761 9.001,5.593 3.448,3.115 5.877,9.571 4.367,11.611 -1.619,2.187 -8.768,0.869 -8.768,-1.617 0,-1.651 -1.41,-3.619 -3.751,-5.233 l -2.394,-1.65 -5.748,-0.143 c -7.729,-0.191 -7.222,-0.717 -7.156,7.426 0.07,8.692 0.404,9.296 9.931,17.978 16.4,14.946 18.911,19.117 18.528,30.782 -0.239,7.305 -0.5,8.241 -3.413,12.246 -5.145,7.074 -9.851,8.702 -23.242,8.039 -11.087,-0.549 -16.872,-4.423 -19.601,-13.128 -1.608,-5.13 -1.295,-5.602 3.871,-5.851 l 3.973,-0.191 0.461,1.736 c 1.748,6.581 4.43,8.264 13.179,8.273 6.264,0.006 6.012,0.306 6.166,-7.33 0.137,-6.818 -0.229,-8.571 -2.468,-11.821 -1.317,-1.914 -10.626,-11.113 -12.074,-11.932 -1.097,-0.621 -8.215,-8.026 -10.112,-10.521 -3.055,-4.017 -3.676,-5.624 -3.992,-10.329 -0.83,-12.383 3.411,-19.906 13.331,-23.649 3.188,-1.202 15.41,-1.38 19.911,-0.289 m 74.325,1.444 c 2.369,1.314 7.765,6.542 8.215,7.959 0.147,0.466 0.625,1.33 1.06,1.919 1.205,1.629 1.592,14.907 0.574,19.691 -1.54,7.241 -5.953,12.389 -12.812,14.945 -1.682,0.627 -3.393,0.737 -12.636,0.813 l -10.692,0.088 -0.819,0.952 c -0.804,0.936 -0.817,1.26 -0.714,18.481 0.128,21.506 1.359,19.032 -9.408,18.908 -9.309,-0.107 -8.896,0.076 -9.194,-4.078 -0.5,-6.951 -0.107,-80.447 0.433,-81.098 0.487,-0.587 2.506,-0.663 20.02,-0.755 21.33,-0.113 21.939,-0.062 25.973,2.175 m -27.153,7.434 c -1.117,0.441 -1.348,1.183 -0.943,3.024 0.186,0.845 0.305,6.686 0.266,12.981 l -0.072,11.446 1.009,0.848 c 0.942,0.793 1.285,0.831 5.154,0.58 2.279,-0.148 5.929,-0.172 8.109,-0.054 5.868,0.319 5.442,1.478 5.384,-14.628 -0.045,-12.523 -0.087,-13.239 -0.812,-13.847 -0.849,-0.713 -16.413,-1.014 -18.095,-0.35 m 112.657,72.902 c -0.121,0.196 0.047,0.458 0.373,0.583 0.36,0.138 0.592,-0.002 0.592,-0.355 0,-0.641 -0.619,-0.787 -0.965,-0.228 m -173.834,22.094 c 0.744,0.743 0.861,1.396 0.997,5.55 0.186,5.665 -0.213,6.848 -2.987,8.87 -8.163,5.949 -20.207,15.325 -24.062,18.731 -1.172,1.036 -2.307,1.883 -2.522,1.883 -0.476,0 -3.564,2.746 -3.564,3.17 0,0.627 2.35,1.239 4.405,1.146 11.601,-0.526 22.631,6.63 26.958,17.488 l 1.342,3.37 v 18.835 18.836 l -1.784,3.468 c -4.974,9.672 -12.927,16.317 -20.812,17.39 -6.075,0.827 -30.623,0.77 -33.871,-0.078 -1.622,-0.424 -3.19,-0.77 -3.485,-0.77 -6.417,0 -18.963,-14.149 -19.809,-22.339 -0.306,-2.968 0.054,-3.166 5.749,-3.163 5.687,0.002 7.042,0.515 7.427,2.807 0.727,4.327 4.043,8.321 8.352,10.058 3.338,1.345 30.738,1.494 31.704,0.172 0.869,-1.187 0.839,-51.828 -0.031,-52.55 -0.453,-0.376 -4.637,-0.488 -17.74,-0.475 -9.747,0.01 -17.788,-0.147 -18.633,-0.364 l -1.487,-0.381 v -5.965 -5.965 l 1.288,-1.182 c 2.887,-2.646 5.879,-5.085 8.079,-6.585 1.28,-0.873 2.863,-2.095 3.517,-2.715 0.654,-0.621 2.237,-1.906 3.517,-2.856 2.303,-1.71 3.606,-2.751 10.16,-8.117 8.167,-6.687 9.545,-6.216 -18.549,-6.333 -14.182,-0.059 -22.385,-0.237 -22.632,-0.489 -0.213,-0.218 -0.437,-2.783 -0.496,-5.7 -0.157,-7.666 -5.495,-6.774 39.907,-6.674 l 38.22,0.084 0.842,0.843 m 72.146,-0.465 c 5.658,0.853 10.679,3.459 15.163,7.871 2.514,2.473 7.014,9.143 7.014,10.396 0,0.492 0.35,2.029 0.777,3.414 0.849,2.753 0.953,3.912 0.826,9.259 -0.046,1.963 0.043,4.677 0.197,6.031 0.175,1.53 0.082,3.708 -0.246,5.749 l -0.528,3.285 -7.055,7.03 c -3.88,3.867 -8.954,9.13 -11.276,11.695 -2.322,2.565 -5.934,6.371 -8.027,8.457 -24.368,24.287 -26.152,26.314 -26.307,29.878 -0.17,3.89 -2.435,3.579 26.935,3.693 18.768,0.073 25.763,0.223 26.171,0.561 0.527,0.438 0.457,8.15 -0.1,10.896 -0.33,1.627 -1.082,1.658 -40.232,1.659 l -37.746,10e-4 -0.96,-0.959 -0.959,-0.96 0.188,-8.11 c 0.104,-4.461 0.351,-8.402 0.55,-8.757 0.392,-0.701 18.736,-19.569 31.806,-32.714 10.219,-10.277 20.218,-20.695 20.775,-21.644 0.919,-1.568 0.601,-33.435 -0.34,-34.048 -0.649,-0.423 -3.561,-0.498 -14.559,-0.373 l -13.747,0.156 -2.308,1.215 c -4.976,2.62 -7.337,5.137 -8.68,9.256 -1.012,3.104 -0.893,3.045 -5.988,3.002 -2.496,-0.02 -4.639,0.064 -4.762,0.187 -0.869,0.869 -2.497,-1.026 -2.259,-2.63 1.662,-11.195 9.625,-19.876 21.363,-23.29 3.249,-0.945 28.409,-1.096 34.314,-0.206 m 100.076,24.796 c -0.141,0.228 0.226,0.393 0.869,0.39 0.865,-0.005 0.981,-0.092 0.519,-0.39 -0.762,-0.493 -1.083,-0.493 -1.388,0 M 35.338,234.188 c -0.343,0.641 -0.314,0.865 0.137,1.038 0.762,0.292 1.132,-0.367 0.67,-1.193 -0.334,-0.597 -0.413,-0.582 -0.807,0.155 m 328.02,44.855 c -0.12,0.194 0.032,0.559 0.338,0.812 0.617,0.513 1.25,-0.076 0.823,-0.767 -0.303,-0.491 -0.872,-0.513 -1.161,-0.045 M 35.282,302.279 c 0,0.328 0.179,0.595 0.397,0.595 0.218,0 0.396,-0.267 0.396,-0.595 0,-0.327 -0.178,-0.594 -0.396,-0.594 -0.218,0 -0.397,0.267 -0.397,0.594 m 152.825,58.078 c -0.158,0.256 -0.109,0.644 0.109,0.862 0.264,0.264 0.492,0.241 0.684,-0.069 0.158,-0.256 0.109,-0.644 -0.109,-0.862 -0.264,-0.265 -0.492,-0.242 -0.684,0.069 m -44.688,1.807 c -0.319,0.319 0.117,1.761 0.532,1.761 0.193,0 0.35,-0.446 0.35,-0.991 0,-0.933 -0.384,-1.268 -0.882,-0.77"
     stroke="none"
     fill="#2e2e2e"
     fill-rule="evenodd" />
</svg>
